<?xml version="1.0" standalone="no"?>
<!DOCTYPE svg PUBLIC "-//W3C//DTD SVG 20010904//EN"
 "http://www.w3.org/TR/2001/REC-SVG-20010904/DTD/svg10.dtd">
<svg version="1.0" xmlns="http://www.w3.org/2000/svg"
 width="1300.000000pt" height="580.000000pt" viewBox="0 0 1300.000000 580.000000"
 preserveAspectRatio="xMidYMid meet">

<g transform="translate(0.000000,580.000000) scale(0.100000,-0.100000)"
fill="#000000" stroke="none">
<path d="M7490 5501 l0 -299 90 -100 90 -101 0 -1055 0 -1056 -80 0 -80 0 0
-125 0 -125 -40 0 -40 0 0 -245 0 -245 2785 0 2785 0 0 245 0 245 -40 0 -40 0
0 125 0 125 -32 0 c-18 0 -57 3 -85 6 l-53 7 0 1046 0 1046 90 100 89 100 1
303 0 302 -780 0 -780 0 0 -298 0 -299 85 -97 85 -96 0 -355 0 -355 -145 0
-145 0 0 -145 0 -145 -40 0 -40 0 0 145 0 145 -145 0 -145 0 0 43 c0 41 4 46
145 187 l145 145 0 262 0 263 -960 0 -960 0 0 -263 0 -262 145 -145 c141 -141
145 -146 145 -187 l0 -43 -140 0 -140 0 0 -145 0 -145 -45 0 -45 0 0 145 0
145 -140 0 -140 0 0 359 0 358 80 89 80 89 0 303 0 302 -780 0 -780 0 0 -299z
m380 -11 l0 -151 -107 3 -108 3 -3 148 -3 147 111 0 110 0 0 -150z m310 75 l0
-75 95 0 95 0 0 75 0 75 130 0 130 0 0 -150 0 -150 -350 0 -350 0 0 150 0 150
125 0 125 0 0 -75z m730 -75 l0 -150 -110 0 -110 0 0 150 0 150 110 0 110 0 0
-150z m2828 3 l-3 -148 -107 -3 -108 -3 0 151 0 150 110 0 111 0 -3 -147z
m302 72 l0 -75 95 0 95 0 0 75 0 75 135 0 136 0 -3 -147 -3 -148 -350 0 -350
0 -3 148 -3 147 126 0 125 0 0 -75z m730 -75 l0 -151 -107 3 -108 3 -3 148 -3
147 111 0 110 0 0 -150z m-4811 -319 c47 -53 86 -102 89 -109 3 -9 -24 -12
-101 -12 l-104 0 -65 73 c-86 95 -118 134 -118 141 0 3 48 6 108 5 l107 0 84
-98z m665 87 c-4 -7 -46 -57 -92 -110 l-85 -98 -163 0 -162 0 -84 93 c-46 50
-90 100 -97 110 -13 16 5 17 338 17 279 0 351 -3 345 -12z m275 -5 c-42 -50
-165 -189 -174 -195 -15 -11 -217 -10 -213 1 2 5 43 55 91 110 l88 101 111 0
c105 0 110 -1 97 -17z m2916 -75 c124 -141 124 -128 -3 -128 l-108 0 -92 105
c-51 57 -92 107 -92 110 0 3 48 5 108 5 l107 0 80 -92z m673 83 c-1 -5 -43
-55 -91 -110 l-88 -101 -164 0 -163 0 -89 100 c-48 55 -89 105 -91 110 -2 6
121 10 343 10 206 0 345 -4 343 -9z m275 -4 c-4 -8 -46 -57 -93 -110 l-84 -97
-109 0 c-86 0 -106 3 -100 13 4 7 46 57 93 110 l84 97 109 0 c87 0 106 -3 100
-13z m-3123 -302 l0 -85 110 0 110 0 0 85 0 85 115 0 115 0 0 -85 0 -85 110 0
110 0 0 85 0 86 123 -3 122 -3 3 -82 3 -83 109 0 110 0 0 85 0 85 115 0 116 0
-3 -147 -3 -148 -795 0 -795 0 -3 134 c-1 74 0 141 2 148 4 10 34 13 116 13
l110 0 0 -85z m-1585 -1065 l0 -1085 -107 -3 -108 -3 0 1091 0 1091 108 -3
107 -3 0 -1085z m395 0 l0 -1090 -167 2 -168 3 -3 1075 c-1 591 0 1081 3 1088
3 9 47 12 170 12 l165 0 0 -1090z m270 0 l0 -1091 -107 3 -108 3 -3 1075 c-1
591 0 1081 3 1088 3 8 35 12 110 12 l105 0 0 -1090z m3200 0 l0 -1090 -110 0
-110 0 0 1090 0 1090 110 0 110 0 0 -1090z m390 0 l0 -1090 -165 0 -165 0 0
1090 0 1090 165 0 165 0 0 -1090z m280 0 l0 -1090 -110 0 -110 0 0 1090 0
1090 110 0 110 0 0 -1090z m-1670 772 c0 -4 -46 -53 -103 -110 l-102 -102
-505 0 -505 0 -103 103 c-56 56 -102 106 -102 110 0 4 320 7 710 7 391 0 710
-3 710 -8z m-200 -562 c0 -176 -4 -270 -10 -270 -6 0 -52 22 -103 48 -50 27
-160 84 -244 126 l-152 78 -244 -126 c-135 -69 -248 -126 -251 -126 -3 0 -6
122 -6 270 l0 270 505 0 505 0 0 -270z m-1710 -65 l0 -105 -105 0 -105 0 0
105 0 105 105 0 105 0 0 -105z m620 0 l0 -105 -105 0 -105 0 0 105 0 105 105
0 105 0 0 -105z m1370 0 l0 -105 -105 0 -105 0 0 98 c0 54 3 102 7 105 3 4 51
7 105 7 l98 0 0 -105z m620 0 l0 -105 -105 0 -105 0 0 105 0 105 105 0 105 0
0 -105z m-922 -291 c21 -14 22 -19 22 -184 l0 -170 -85 0 -85 0 0 119 0 120
-171 86 -170 86 -162 -85 -162 -84 -3 -121 -3 -121 -84 0 -85 0 0 174 0 174
251 129 250 130 232 -120 c128 -65 242 -125 255 -133z m-1068 1 l0 -105 -415
0 -415 0 0 105 0 105 415 0 415 0 0 -105z m1990 0 l0 -105 -415 0 -415 0 0 98
c0 54 3 102 7 105 3 4 190 7 415 7 l408 0 0 -105z m-1990 -565 l0 -380 -415 0
-415 0 0 380 0 380 415 0 415 0 0 -380z m1990 0 l0 -380 -412 2 -413 3 -3 378
-2 377 415 0 415 0 0 -380z m-1745 -165 l0 -210 -82 -3 -83 -3 0 216 0 216 83
-3 82 -3 0 -210z m840 0 l0 -210 -82 -3 -83 -3 0 216 0 216 83 -3 82 -3 0
-210z m-1897 -372 l3 -83 -576 0 -575 0 0 85 0 85 573 -2 572 -3 3 -82z m722
2 l0 -85 -80 0 -80 0 0 -125 0 -125 -200 0 -200 0 0 125 0 125 -45 0 -45 0 0
78 c0 43 3 82 7 85 3 4 150 7 325 7 l318 0 0 -85z m1260 0 l0 -85 -590 0 -590
0 0 78 c0 43 3 82 7 85 3 4 269 7 590 7 l583 0 0 -85z m728 -2 l3 -83 -46 0
-45 0 0 -125 0 -125 -200 0 -200 0 0 125 0 125 -80 0 -80 0 0 85 0 85 323 -2
322 -3 3 -82z m1230 0 l3 -83 -576 0 -575 0 0 85 0 85 573 -2 572 -3 3 -82z
m-3858 -248 l0 -85 -655 0 -655 0 0 85 0 85 655 0 655 0 0 -85z m2070 0 l0
-85 -755 0 -755 0 0 85 0 85 755 0 755 0 0 -85z m1870 0 l0 -85 -660 0 -660 0
0 85 0 85 660 0 660 0 0 -85z"/>
<path d="M7910 4584 l0 -285 38 3 37 3 3 283 2 282 -40 0 -40 0 0 -286z"/>
<path d="M7910 3196 l0 -286 40 0 40 0 -2 283 -3 282 -37 3 -38 3 0 -285z"/>
<path d="M8200 4585 l0 -285 80 0 80 0 0 285 0 285 -80 0 -80 0 0 -285z"/>
<path d="M8200 3195 l0 -285 80 0 80 0 0 285 0 285 -80 0 -80 0 0 -285z"/>
<path d="M8580 4585 l0 -285 35 0 35 0 0 285 0 285 -35 0 -35 0 0 -285z"/>
<path d="M8580 3195 l0 -285 35 0 35 0 0 285 0 285 -35 0 -35 0 0 -285z"/>
<path d="M11770 4585 l0 -285 40 0 40 0 0 285 0 285 -40 0 -40 0 0 -285z"/>
<path d="M11770 3195 l0 -285 40 0 40 0 0 285 0 285 -40 0 -40 0 0 -285z"/>
<path d="M12062 4588 l3 -283 78 -3 77 -3 0 286 0 285 -80 0 -80 0 2 -282z"/>
<path d="M12067 3473 c-4 -3 -7 -132 -7 -285 l0 -278 80 0 80 0 0 285 0 285
-73 0 c-41 0 -77 -3 -80 -7z"/>
<path d="M12440 4584 l0 -285 38 3 37 3 3 283 2 282 -40 0 -40 0 0 -286z"/>
<path d="M12440 3196 l0 -286 40 0 40 0 -2 283 -3 282 -37 3 -38 3 0 -285z"/>
<path d="M8970 3185 l0 -275 80 0 80 0 0 275 0 275 -80 0 -80 0 0 -275z"/>
<path d="M9300 3185 l0 -275 80 0 80 0 0 275 0 275 -80 0 -80 0 0 -275z"/>
<path d="M10960 3185 l0 -275 80 0 80 0 0 275 0 275 -80 0 -80 0 0 -275z"/>
<path d="M11290 3185 l0 -275 80 0 80 0 0 275 0 275 -80 0 -80 0 0 -275z"/>
<path d="M0 3275 l0 -1125 1195 0 1195 0 0 275 0 275 -750 0 -750 0 0 150 0
150 700 0 700 0 0 275 0 275 -700 0 -700 0 0 150 0 150 750 0 750 0 0 275 0
275 -1195 0 -1195 0 0 -1125z"/>
<path d="M2690 3275 l0 -1125 405 0 405 0 2 805 3 806 236 -803 236 -803 339
-3 339 -2 235 800 235 801 3 -801 2 -800 405 0 405 0 0 1125 0 1125 -627 -2
-626 -3 -183 -648 c-100 -357 -184 -650 -186 -653 -3 -2 -87 291 -189 651
l-184 655 -627 0 -628 0 0 -1125z"/>
<path d="M6240 3275 l0 -1125 445 0 445 0 0 1125 0 1125 -445 0 -445 0 0
-1125z"/>
<path d="M12290 1975 l-54 -55 46 0 c40 0 53 6 109 51 35 28 66 53 68 55 2 2
-22 4 -55 4 -59 0 -60 -1 -114 -55z"/>
<path d="M579 1874 c-94 -29 -135 -115 -98 -206 15 -38 59 -63 154 -88 99 -27
125 -43 125 -76 0 -55 -116 -68 -219 -23 -24 10 -45 19 -47 19 -5 0 -34 -70
-34 -82 0 -5 21 -19 48 -31 66 -30 228 -31 287 -2 52 26 85 76 85 129 0 85
-43 122 -179 156 -51 12 -97 30 -106 40 -20 23 -12 55 17 71 31 16 118 13 163
-5 20 -9 41 -16 45 -16 4 0 14 19 23 42 19 48 18 50 -57 73 -61 19 -146 18
-207 -1z"/>
<path d="M1130 1881 c-115 -35 -180 -112 -196 -230 -15 -116 62 -238 175 -276
101 -33 239 -8 296 55 l20 22 -39 34 -39 33 -29 -24 c-50 -42 -145 -46 -198
-7 -14 10 -36 39 -49 65 -41 83 -9 181 72 217 68 31 136 23 184 -22 l21 -20
39 35 38 35 -24 26 c-49 52 -189 82 -271 57z"/>
<path d="M9474 1879 c-62 -18 -128 -71 -159 -129 -24 -46 -29 -67 -29 -125 0
-169 123 -275 308 -263 49 3 87 13 121 30 l50 24 3 107 3 107 -56 0 -55 0 0
-75 c0 -73 -1 -76 -27 -86 -16 -6 -51 -9 -79 -7 -92 8 -148 69 -148 163 0 61
24 109 67 135 64 40 138 38 200 -4 l35 -24 37 38 37 38 -36 27 c-64 49 -187
69 -272 44z"/>
<path d="M0 1625 l0 -255 200 0 200 0 0 45 0 45 -140 0 -140 0 0 60 0 60 120
0 120 0 0 45 0 45 -120 0 -120 0 0 60 0 60 135 0 135 0 0 45 0 45 -195 0 -195
0 0 -255z"/>
<path d="M1500 1698 c0 -157 3 -189 19 -224 49 -107 209 -149 332 -86 45 22
59 36 82 81 26 53 27 58 27 233 l0 178 -60 0 -60 0 0 -170 c0 -187 -7 -216
-55 -238 -59 -27 -125 -9 -152 40 -14 27 -18 65 -21 201 l-4 167 -54 0 -54 0
0 -182z"/>
<path d="M2080 1625 l0 -255 200 0 200 0 0 45 0 45 -140 0 -140 0 0 60 0 60
120 0 120 0 0 45 0 45 -120 0 -120 0 0 60 0 60 135 0 135 0 0 45 0 45 -195 0
-195 0 0 -255z"/>
<path d="M2570 1625 l0 -255 190 0 190 0 0 45 0 44 -127 3 -128 3 -3 208 -2
207 -60 0 -60 0 0 -255z"/>
<path d="M3075 1638 c-59 -134 -110 -249 -112 -255 -4 -10 11 -13 55 -13 l60
0 23 55 23 56 120 -3 120 -3 21 -52 20 -53 63 0 c35 0 61 3 59 8 -2 4 -53 118
-113 254 l-109 248 -61 0 -61 0 -108 -242z m209 29 c20 -48 36 -89 36 -92 0
-3 -36 -5 -79 -5 l-79 0 32 78 c18 42 36 86 40 96 9 24 8 26 50 -77z"/>
<path d="M3800 1625 l0 -255 55 0 55 0 0 147 0 147 73 -119 c66 -109 76 -120
102 -120 26 0 35 11 99 118 l71 117 3 -145 3 -145 59 0 60 0 0 163 c0 90 -3
205 -6 255 l-7 92 -46 0 -47 0 -88 -150 c-48 -82 -91 -152 -96 -155 -4 -3 -50
65 -101 150 l-94 155 -47 0 -48 0 0 -255z"/>
<path d="M4500 1625 l0 -255 60 0 60 0 0 255 0 255 -60 0 -60 0 0 -255z"/>
<path d="M4740 1625 l0 -255 190 0 190 0 0 45 0 45 -130 0 -130 0 0 210 0 210
-60 0 -60 0 0 -255z"/>
<path d="M5180 1625 l0 -255 60 0 60 0 0 255 0 255 -60 0 -60 0 0 -255z"/>
<path d="M5370 1830 l0 -50 80 0 80 0 0 -205 0 -205 60 0 60 0 0 205 0 204 83
3 82 3 3 48 3 47 -225 0 -226 0 0 -50z"/>
<path d="M5910 1643 c-58 -130 -108 -245 -112 -255 -7 -16 -1 -18 52 -18 l60
0 25 55 24 55 116 0 116 0 24 -55 25 -55 61 0 c45 0 60 3 56 13 -2 6 -53 121
-113 255 l-108 242 -60 0 -61 0 -105 -237z m204 27 c20 -46 36 -88 36 -92 0
-4 -34 -8 -75 -8 -41 0 -75 3 -75 7 0 11 73 184 76 180 1 -1 19 -40 38 -87z"/>
<path d="M6420 1625 l0 -255 60 0 60 0 0 70 0 70 54 0 54 0 48 -70 48 -70 63
0 c73 0 73 -7 2 92 l-48 66 34 27 c87 66 95 188 16 266 -49 49 -91 59 -253 59
l-138 0 0 -255z m295 132 c21 -17 27 -32 27 -62 0 -30 -6 -45 -27 -62 -22 -20
-37 -23 -101 -23 l-74 0 0 85 0 85 74 0 c64 0 79 -3 101 -23z"/>
<path d="M7170 1624 l0 -256 168 4 c165 3 168 3 222 34 129 72 165 243 79 368
-56 81 -131 106 -326 106 l-143 0 0 -256z m316 140 c106 -50 104 -228 -2 -279
-20 -9 -72 -19 -115 -22 l-79 -6 0 162 0 161 81 0 c54 0 92 -5 115 -16z"/>
<path d="M7780 1625 l0 -255 200 0 200 0 0 45 0 45 -140 0 -140 0 0 60 0 60
115 0 115 0 0 45 0 45 -115 0 -115 0 0 60 0 60 135 0 135 0 0 45 0 45 -195 0
-195 0 0 -255z"/>
<path d="M8480 1625 l0 -255 60 0 60 0 0 255 0 255 -60 0 -60 0 0 -255z"/>
<path d="M8720 1625 l0 -255 60 0 59 0 3 151 3 151 123 -151 123 -151 50 0 49
0 0 255 0 255 -55 0 -55 0 0 -150 c0 -82 -3 -150 -7 -150 -5 0 -62 68 -128
150 l-120 149 -52 0 -53 1 0 -255z"/>
<path d="M9880 1625 l0 -255 200 0 200 0 0 45 0 45 -140 0 -140 0 0 60 0 60
120 0 120 0 0 45 0 45 -120 0 -120 0 0 60 0 60 135 0 135 0 0 45 0 45 -195 0
-195 0 0 -255z"/>
<path d="M10380 1625 l0 -255 55 0 55 0 0 150 c0 83 3 150 8 150 4 -1 61 -68
127 -150 l120 -149 53 0 52 -1 0 255 0 255 -60 0 -59 0 -3 -152 -3 -152 -124
152 -123 152 -49 0 -49 0 0 -255z"/>
<path d="M10970 1625 l0 -255 60 0 60 0 0 255 0 255 -60 0 -60 0 0 -255z"/>
<path d="M11210 1625 l0 -255 200 0 200 0 0 45 0 45 -140 0 -140 0 0 60 0 60
120 0 120 0 0 45 0 45 -120 0 -120 0 0 60 0 60 135 0 135 0 0 45 0 45 -195 0
-195 0 0 -255z"/>
<path d="M11710 1625 l0 -255 60 0 60 0 0 70 0 70 53 0 54 0 48 -70 48 -70 64
0 65 0 -57 81 c-31 44 -55 82 -53 83 2 1 16 10 31 20 45 28 67 73 67 139 0 66
-16 103 -60 140 -45 38 -90 47 -242 47 l-138 0 0 -255z m294 134 c21 -16 26
-29 26 -64 0 -65 -30 -85 -126 -85 l-74 0 0 85 0 85 74 0 c59 0 78 -4 100 -21z"/>
<path d="M12250 1625 l0 -255 60 0 60 0 0 255 0 255 -60 0 -60 0 0 -255z"/>
<path d="M12641 1858 c-5 -13 -55 -124 -110 -247 -56 -123 -101 -228 -101
-233 0 -4 26 -8 59 -8 l58 0 20 53 20 52 120 3 120 3 23 -56 22 -55 63 0 63 0
-112 253 -113 252 -61 3 c-57 3 -63 1 -71 -20z m111 -195 l36 -88 -75 -3 c-42
-2 -77 -1 -79 1 -5 5 68 177 76 177 4 0 23 -39 42 -87z"/>
<path d="M5610 660 c-24 -24 -25 -38 -4 -68 29 -42 104 -17 104 35 0 20 -38
53 -60 53 -11 0 -29 -9 -40 -20z"/>
<path d="M2160 341 l0 -331 45 0 45 0 -2 328 -3 327 -42 3 -43 3 0 -330z"/>
<path d="M9247 663 c-4 -3 -7 -60 -7 -126 0 -115 -1 -119 -18 -104 -30 27 -89
47 -138 47 -142 0 -236 -93 -236 -234 0 -143 92 -238 232 -238 66 0 105 14
143 50 l27 26 0 -37 c0 -36 1 -37 40 -37 l40 0 0 330 0 330 -38 0 c-21 0 -42
-3 -45 -7z m-66 -283 c41 -30 62 -75 62 -136 0 -92 -54 -153 -141 -162 -178
-17 -240 239 -77 314 40 19 118 11 156 -16z"/>
<path d="M8295 605 l-60 -55 43 0 c36 0 52 8 107 51 36 28 65 53 65 55 0 2
-21 4 -47 4 -44 0 -53 -5 -108 -55z"/>
<path d="M10415 630 c-111 -16 -175 -81 -175 -178 0 -74 55 -128 160 -157 183
-50 210 -66 210 -121 0 -44 -34 -80 -84 -90 -64 -11 -149 0 -208 29 -30 15
-57 27 -60 27 -3 0 -11 -14 -19 -31 -11 -28 -10 -33 6 -45 76 -56 246 -76 337
-41 83 32 130 110 114 189 -14 73 -58 103 -204 142 -138 37 -162 54 -162 112
0 41 17 61 65 80 56 21 142 15 208 -14 l46 -20 10 30 c16 45 16 45 -41 66 -64
23 -136 31 -203 22z"/>
<path d="M300 321 l0 -311 40 0 40 0 2 222 3 222 109 -182 c99 -167 111 -183
134 -180 22 3 43 32 131 181 l106 178 3 -220 2 -221 45 0 45 0 0 310 0 310
-38 0 -38 0 -123 -210 c-68 -116 -126 -212 -130 -214 -4 -3 -64 90 -132 207
-125 211 -126 212 -162 215 l-37 3 0 -310z"/>
<path d="M2910 330 c-74 -166 -136 -305 -138 -310 -2 -6 16 -10 41 -10 l44 0
33 75 33 75 167 0 167 0 31 -72 30 -73 46 -3 c25 -2 46 1 45 5 0 4 -62 143
-137 308 l-138 300 -44 3 -45 2 -135 -300z m249 50 l60 -135 -126 -3 c-69 -1
-127 -1 -129 1 -2 2 24 67 59 145 34 78 65 138 69 134 4 -4 34 -68 67 -142z"/>
<path d="M6630 590 l0 -40 110 0 110 0 0 -195 c0 -246 -11 -275 -105 -275 -42
0 -69 12 -106 47 l-26 24 -22 -27 c-11 -15 -21 -30 -21 -34 0 -21 73 -69 121
-79 103 -22 186 9 224 84 18 36 20 64 23 288 l3 247 -155 0 -156 0 0 -40z"/>
<path d="M4110 530 l0 -50 -40 0 c-39 0 -40 -1 -40 -35 0 -34 1 -35 40 -35
l40 0 0 -151 c0 -168 9 -202 60 -233 35 -20 118 -23 161 -6 34 14 32 12 17 44
-10 23 -15 25 -49 20 -53 -9 -84 1 -97 31 -7 16 -12 79 -12 160 l0 135 70 0
70 0 0 35 0 35 -70 0 -70 0 0 50 0 50 -40 0 -40 0 0 -50z"/>
<path d="M1236 465 c-87 -31 -145 -119 -146 -220 0 -144 98 -238 247 -237 70
1 117 19 159 63 l29 30 -25 19 c-31 24 -44 25 -61 4 -76 -92 -246 -34 -265 91
-22 153 147 254 259 155 l33 -29 30 24 29 23 -25 27 c-55 61 -173 83 -264 50z"/>
<path d="M1709 471 c-14 -5 -42 -16 -62 -25 l-36 -18 16 -33 16 -34 41 22 c30
15 60 21 109 22 65 0 70 -2 98 -33 18 -20 29 -43 29 -61 l0 -29 -107 -4 c-122
-4 -168 -20 -196 -67 -33 -57 -11 -152 42 -181 63 -33 181 -28 234 10 l27 21
0 -26 c0 -23 4 -25 45 -25 l45 0 -1 138 c-1 210 -12 254 -83 306 -22 17 -44
21 -109 23 -45 1 -94 -1 -108 -6z m211 -290 c0 -63 -58 -111 -135 -111 -69 0
-114 42 -101 94 10 40 50 55 149 56 l87 0 0 -39z"/>
<path d="M3490 245 l0 -235 45 0 45 0 0 148 c0 128 3 151 20 179 35 59 99 82
170 63 70 -19 80 -46 80 -232 l0 -158 46 0 46 0 -4 173 c-4 178 -7 197 -52
245 -63 70 -219 69 -293 0 l-23 -21 0 36 c0 36 -1 37 -40 37 l-40 0 0 -235z"/>
<path d="M4540 459 c-94 -42 -135 -107 -134 -214 1 -145 94 -237 239 -237 145
0 239 93 239 237 0 82 -23 136 -79 183 -68 55 -182 69 -265 31z m180 -71 c54
-28 80 -74 80 -141 0 -95 -52 -156 -140 -165 -96 -9 -161 49 -168 149 -6 74
23 130 82 159 53 26 91 25 146 -2z"/>
<path d="M5010 245 l0 -235 40 0 40 0 0 133 c0 72 5 149 10 169 29 103 189
130 247 42 15 -24 19 -54 22 -186 l3 -158 39 0 39 0 0 163 c0 136 -3 168 -19
202 -34 75 -85 105 -177 105 -56 0 -115 -19 -146 -47 -17 -15 -18 -14 -18 15
0 31 -2 32 -40 32 l-40 0 0 -235z"/>
<path d="M5610 245 l0 -235 40 0 40 0 0 235 0 235 -40 0 -40 0 0 -235z"/>
<path d="M5950 459 c-94 -42 -134 -107 -134 -214 0 -145 94 -238 240 -237 146
1 238 92 238 237 0 107 -40 172 -134 214 -60 27 -150 27 -210 0z m175 -69 c60
-29 89 -84 83 -159 -7 -100 -72 -158 -168 -149 -89 9 -140 69 -140 165 0 65
27 112 80 140 53 28 91 29 145 3z"/>
<path d="M7193 456 c-178 -83 -171 -355 11 -431 51 -22 150 -22 204 0 54 22
116 92 132 150 25 90 -6 196 -75 253 -71 58 -183 69 -272 28z m187 -68 c54
-28 80 -74 80 -141 0 -97 -53 -158 -144 -164 -96 -8 -165 60 -166 160 0 129
117 202 230 145z"/>
<path d="M7723 470 c-43 -14 -91 -64 -98 -104 -8 -41 15 -99 48 -120 13 -9 66
-25 118 -37 129 -28 161 -62 102 -109 -24 -19 -38 -21 -98 -18 -44 2 -85 11
-111 24 l-42 20 -16 -33 c-9 -19 -16 -35 -16 -38 0 -2 26 -13 57 -25 41 -15
81 -22 136 -22 128 0 197 49 197 139 0 72 -37 101 -165 128 -44 9 -90 23 -102
31 -23 14 -30 48 -15 71 21 33 118 42 187 18 52 -19 48 -20 69 15 l17 30 -38
17 c-45 19 -184 27 -230 13z"/>
<path d="M8195 456 c-59 -27 -77 -46 -104 -106 -38 -83 -21 -210 37 -273 68
-76 243 -92 333 -32 44 29 45 32 19 63 l-18 22 -49 -26 c-40 -21 -58 -25 -106
-22 -64 5 -98 25 -134 78 -42 60 -42 60 167 60 l190 0 0 43 c0 56 -40 138 -81
169 -73 54 -171 63 -254 24z m183 -66 c32 -20 72 -74 72 -97 0 -10 -37 -13
-151 -13 l-150 0 7 23 c28 92 141 136 222 87z"/>
<path d="M9569 452 c-76 -40 -113 -100 -117 -196 -3 -63 0 -77 25 -126 49 -92
154 -138 274 -119 48 8 129 50 129 67 -1 4 -9 17 -20 30 l-18 22 -49 -26 c-40
-21 -58 -25 -106 -22 -75 6 -140 54 -149 113 -3 19 3 20 185 23 l187 2 0 37
c0 62 -22 116 -66 160 -71 70 -181 84 -275 35z m189 -62 c32 -20 72 -74 72
-97 0 -10 -37 -13 -151 -13 l-150 0 7 23 c28 91 142 136 222 87z"/>
<path d="M10810 332 c0 -168 13 -232 57 -274 38 -36 77 -50 143 -50 63 0 105
14 138 44 l22 21 0 -31 c0 -31 2 -32 40 -32 l40 0 0 235 0 235 -40 0 -40 0 0
-140 c0 -155 -9 -192 -55 -228 -60 -48 -160 -37 -195 21 -18 28 -20 51 -20
190 l0 157 -45 0 -45 0 0 -148z"/>
<path d="M11510 460 c-94 -44 -133 -108 -134 -215 -1 -78 20 -129 71 -177 94
-90 301 -76 354 24 7 14 3 21 -21 33 -30 15 -32 15 -61 -9 -75 -64 -202 -39
-243 48 -20 42 -21 118 -1 155 21 41 70 79 111 87 45 8 109 -10 139 -40 l23
-23 31 19 c26 17 29 23 20 39 -5 11 -28 31 -50 46 -56 37 -173 44 -239 13z"/>
<path d="M11920 245 l0 -235 39 0 39 0 4 143 c3 110 8 149 21 175 22 41 72 72
115 72 31 0 32 2 32 40 0 38 -2 40 -29 40 -41 0 -81 -17 -113 -48 l-28 -26 0
37 c0 36 -1 37 -40 37 l-40 0 0 -235z"/>
<path d="M12365 461 c-93 -43 -129 -103 -130 -217 0 -72 3 -85 30 -130 44 -70
116 -106 213 -106 73 0 144 23 170 55 11 13 11 20 -3 41 -10 14 -19 26 -21 26
-1 0 -25 -12 -51 -26 -40 -21 -58 -25 -106 -22 -75 6 -140 54 -149 113 -3 19
3 20 185 23 l187 2 0 48 c-1 85 -53 163 -132 196 -51 22 -143 20 -193 -3z
m163 -65 c37 -20 69 -56 77 -88 l7 -28 -151 0 -151 0 15 38 c19 43 29 55 70
76 37 20 97 20 133 2z"/>
<path d="M2403 120 c-27 -11 -39 -53 -24 -86 15 -33 73 -34 95 -2 22 31 20 45
-9 73 -26 27 -29 28 -62 15z"/>
</g>
</svg>
