<?xml version="1.0" encoding="UTF-8" standalone="no"?>
<svg
   width="16"
   height="16"
   fill="currentColor"
   class="bi bi-printer"
   viewBox="0 0 16 16"
   version="1.1"
   id="svg2"
   sodipodi:docname="printer-azul.svg"
   inkscape:version="1.3.2 (1:1.3.2+202311252150+091e20ef0f)"
   xmlns:inkscape="http://www.inkscape.org/namespaces/inkscape"
   xmlns:sodipodi="http://sodipodi.sourceforge.net/DTD/sodipodi-0.dtd"
   xmlns="http://www.w3.org/2000/svg"
   xmlns:svg="http://www.w3.org/2000/svg">
  <defs
     id="defs2" />
  <sodipodi:namedview
     id="namedview2"
     pagecolor="#ffffff"
     bordercolor="#000000"
     borderopacity="0.25"
     inkscape:showpageshadow="2"
     inkscape:pageopacity="0.0"
     inkscape:pagecheckerboard="0"
     inkscape:deskcolor="#d1d1d1"
     inkscape:zoom="36.375"
     inkscape:cx="8"
     inkscape:cy="8"
     inkscape:window-width="1440"
     inkscape:window-height="828"
     inkscape:window-x="0"
     inkscape:window-y="0"
     inkscape:window-maximized="1"
     inkscape:current-layer="svg2" />
  <path
     d="M2.5 8a.5.5 0 1 0 0-1 .5.5 0 0 0 0 1"
     id="path1"
     style="fill:#e71515;fill-opacity:1" />
  <path
     d="M5 1a2 2 0 0 0-2 2v2H2a2 2 0 0 0-2 2v3a2 2 0 0 0 2 2h1v1a2 2 0 0 0 2 2h6a2 2 0 0 0 2-2v-1h1a2 2 0 0 0 2-2V7a2 2 0 0 0-2-2h-1V3a2 2 0 0 0-2-2zM4 3a1 1 0 0 1 1-1h6a1 1 0 0 1 1 1v2H4zm1 5a2 2 0 0 0-2 2v1H2a1 1 0 0 1-1-1V7a1 1 0 0 1 1-1h12a1 1 0 0 1 1 1v3a1 1 0 0 1-1 1h-1v-1a2 2 0 0 0-2-2zm7 2v3a1 1 0 0 1-1 1H5a1 1 0 0 1-1-1v-3a1 1 0 0 1 1-1h6a1 1 0 0 1 1 1"
     id="path2"
     style="fill:#2d3c6d;fill-opacity:1" />
</svg>
