<?xml version="1.0" encoding="UTF-8" standalone="no"?>
<svg
   width="16"
   height="16"
   fill="currentColor"
   class="bi bi-question-square"
   viewBox="0 0 16 16"
   version="1.1"
   id="svg2"
   sodipodi:docname="question-celeste.svg"
   inkscape:version="1.3.2 (1:1.3.2+202311252150+091e20ef0f)"
   xmlns:inkscape="http://www.inkscape.org/namespaces/inkscape"
   xmlns:sodipodi="http://sodipodi.sourceforge.net/DTD/sodipodi-0.dtd"
   xmlns="http://www.w3.org/2000/svg"
   xmlns:svg="http://www.w3.org/2000/svg">
  <defs
     id="defs2" />
  <sodipodi:namedview
     id="namedview2"
     pagecolor="#ffffff"
     bordercolor="#000000"
     borderopacity="0.25"
     inkscape:showpageshadow="2"
     inkscape:pageopacity="0.0"
     inkscape:pagecheckerboard="0"
     inkscape:deskcolor="#d1d1d1"
     inkscape:zoom="36.375"
     inkscape:cx="8"
     inkscape:cy="8"
     inkscape:window-width="1440"
     inkscape:window-height="828"
     inkscape:window-x="0"
     inkscape:window-y="0"
     inkscape:window-maximized="1"
     inkscape:current-layer="svg2" />
  <path
     d="M14 1a1 1 0 0 1 1 1v12a1 1 0 0 1-1 1H2a1 1 0 0 1-1-1V2a1 1 0 0 1 1-1zM2 0a2 2 0 0 0-2 2v12a2 2 0 0 0 2 2h12a2 2 0 0 0 2-2V2a2 2 0 0 0-2-2z"
     id="path1"
     style="fill:#3c8dfe;fill-opacity:1" />
  <path
     d="M5.255 5.786a.237.237 0 0 0 .241.247h.825c.138 0 .248-.113.266-.25.09-.656.54-1.134 1.342-1.134.686 0 1.314.343 1.314 1.168 0 .635-.374.927-.965 1.371-.673.489-1.206 1.06-1.168 1.987l.003.217a.25.25 0 0 0 .25.246h.811a.25.25 0 0 0 .25-.25v-.105c0-.718.273-.927 1.01-1.486.609-.463 1.244-.977 1.244-2.056 0-1.511-1.276-2.241-2.673-2.241-1.267 0-2.655.59-2.75 2.286m1.557 5.763c0 .533.425.927 1.01.927.609 0 1.028-.394 1.028-.927 0-.552-.42-.94-1.029-.94-.584 0-1.009.388-1.009.94"
     id="path2"
     style="fill:#3c8dfe;fill-opacity:1" />
  <path
     style="fill:#3c8dfe;fill-opacity:0.28999999;stroke:#ffffff;stroke-width:0"
     d="M 1.7070979,14.941512 C 1.4042167,14.846774 1.1089086,14.530908 1.0450783,14.233406 1.0225711,14.128503 1.0164474,12.4118 1.0225489,7.9175258 l 0.00838,-6.1718213 0.077481,-0.157785 C 1.2071254,1.3868904 1.3868904,1.2071254 1.5879195,1.108409 L 1.7457045,1.030928 H 8 14.254296 l 0.157785,0.077481 c 0.201029,0.098716 0.380794,0.2784814 0.47951,0.4795105 l 0.07748,0.157785 V 8 14.254296 l -0.07748,0.157785 c -0.09872,0.201029 -0.278481,0.380794 -0.47951,0.47951 l -0.157785,0.07748 -6.2130589,0.0052 c -5.2111579,0.0043 -6.2325835,-9.5e-4 -6.3341392,-0.03272 z m 6.5994412,-2.548696 c 0.1982169,-0.09075 0.3500118,-0.229348 0.4511769,-0.411962 0.074983,-0.135352 0.080772,-0.166492 0.080772,-0.434462 0,-0.260399 -0.00725,-0.302407 -0.074081,-0.429075 -0.093865,-0.177916 -0.3140382,-0.377069 -0.4827796,-0.43669 -0.7550702,-0.266786 -1.4661891,0.144216 -1.4741696,0.852019 -0.00289,0.256007 0.064448,0.443524 0.2223131,0.619107 0.2207337,0.245509 0.4520382,0.332931 0.847352,0.320256 0.225186,-0.0072 0.3039258,-0.02174 0.4294161,-0.07919 z M 8.3467667,9.5850422 C 8.4166892,9.5248976 8.4231013,9.5006043 8.4429133,9.220781 8.4854711,8.6196962 8.5803857,8.4815252 9.3775123,7.8602502 10.165668,7.2459667 10.46049,6.88291 10.615927,6.335214 10.695323,6.0554548 10.702537,5.4800228 10.630321,5.1871052 10.486539,4.603909 10.098078,4.1233746 9.5395189,3.8377616 9.1115211,3.6189095 8.7200899,3.521721 8.1748951,3.4989391 6.9138158,3.4462425 5.91483,3.9304487 5.4981611,4.7963461 5.3506405,5.1029149 5.2810125,5.3520393 5.2580715,5.655371 5.2409776,5.8813933 5.269829,5.9678931 5.3788844,6.0175819 5.4198114,6.0362296 5.6324404,6.04811 5.9252586,6.04811 H 6.4046309 L 6.488353,5.9725086 C 6.555057,5.9122746 6.5832077,5.8499401 6.6268443,5.6658471 6.6932937,5.3855109 6.7905397,5.1989375 6.9569377,5.0325391 7.2016531,4.7878241 7.5125762,4.673263 7.9301746,4.6739458 8.3678276,4.6746614 8.6863269,4.7869847 8.9237529,5.0243456 9.1585023,5.2590307 9.2715008,5.6412561 9.2122315,6.0001452 9.1448822,6.407961 8.9616533,6.6445204 8.3526843,7.109873 7.6943219,7.6129702 7.4829985,7.8403329 7.2826062,8.2611684 7.1536495,8.5319846 7.0927835,8.8229471 7.0927835,9.1685911 c 0,0.287978 0.039326,0.4102116 0.1457694,0.4530779 0.033229,0.013382 0.279314,0.025114 0.5468558,0.026073 0.471838,0.00169 0.4886881,-1.917e-4 0.561358,-0.0627 z"
     id="path3" />
</svg>
