<?xml version="1.0" encoding="UTF-8" standalone="no"?>
<svg
   width="16"
   height="16"
   fill="currentColor"
   class="bi bi-stack"
   viewBox="0 0 16 16"
   version="1.1"
   id="svg2"
   sodipodi:docname="stack-dark.svg"
   inkscape:version="1.3.2 (1:1.3.2+202311252150+091e20ef0f)"
   xmlns:inkscape="http://www.inkscape.org/namespaces/inkscape"
   xmlns:sodipodi="http://sodipodi.sourceforge.net/DTD/sodipodi-0.dtd"
   xmlns="http://www.w3.org/2000/svg"
   xmlns:svg="http://www.w3.org/2000/svg">
  <defs
     id="defs2" />
  <sodipodi:namedview
     id="namedview2"
     pagecolor="#ffffff"
     bordercolor="#000000"
     borderopacity="0.25"
     inkscape:showpageshadow="2"
     inkscape:pageopacity="0.0"
     inkscape:pagecheckerboard="0"
     inkscape:deskcolor="#d1d1d1"
     inkscape:zoom="18.1875"
     inkscape:cx="8.9621993"
     inkscape:cy="9.4020619"
     inkscape:window-width="1440"
     inkscape:window-height="828"
     inkscape:window-x="0"
     inkscape:window-y="0"
     inkscape:window-maximized="1"
     inkscape:current-layer="svg2" />
  <g
     id="g2"
     style="fill:#2d3c6d;fill-opacity:1">
    <path
       d="m14.12 10.163 1.715.858c.22.11.22.424 0 .534L8.267 15.34a.6.6 0 0 1-.534 0L.165 11.555a.299.299 0 0 1 0-.534l1.716-.858 5.317 2.659c.505.252 1.1.252 1.604 0l5.317-2.66zM7.733.063a.6.6 0 0 1 .534 0l7.568 3.784a.3.3 0 0 1 0 .535L8.267 8.165a.6.6 0 0 1-.534 0L.165 4.382a.299.299 0 0 1 0-.535z"
       id="path1"
       style="fill:#2d3c6d;fill-opacity:1" />
    <path
       d="m14.12 6.576 1.715.858c.22.11.22.424 0 .534l-7.568 3.784a.6.6 0 0 1-.534 0L.165 7.968a.299.299 0 0 1 0-.534l1.716-.858 5.317 2.659c.505.252 1.1.252 1.604 0z"
       id="path2"
       style="fill:#2d3c6d;fill-opacity:1" />
  </g>
</svg>
